<?xml version="1.0" standalone="no"?>
<!DOCTYPE svg PUBLIC "-//W3C//DTD SVG 20010904//EN"
 "http://www.w3.org/TR/2001/REC-SVG-20010904/DTD/svg10.dtd">
<svg version="1.0" xmlns="http://www.w3.org/2000/svg"
 width="512.000000pt" height="512.000000pt" viewBox="0 0 512.000000 512.000000"
 preserveAspectRatio="xMidYMid meet">

<g transform="translate(0.000000,512.000000) scale(0.100000,-0.100000)"
fill="#000000" stroke="none">
<path d="M2569 5097 c-37 -13 -84 -35 -105 -50 -22 -14 -539 -527 -1150 -1139
-980 -981 -1115 -1120 -1138 -1170 -51 -110 -51 -246 0 -356 23 -50 158 -189
1138 -1170 611 -612 1132 -1127 1159 -1143 249 -161 569 -19 620 274 8 49 8
81 -1 128 -26 140 17 92 -1021 1132 l-956 957 956 958 c823 824 960 965 983
1014 157 327 -146 680 -485 565z"/>
<path d="M4486 5110 c-110 -28 -102 -21 -1273 -1193 -894 -895 -1126 -1132
-1147 -1173 -58 -119 -57 -259 5 -374 24 -45 254 -280 1157 -1181 1056 -1055
1131 -1127 1189 -1153 157 -68 338 -32 454 91 86 91 124 208 107 335 -17 135
37 75 -1017 1131 l-966 967 966 968 c1053 1054 999 994 1017 1129 18 140 -26
262 -128 356 -38 36 -80 63 -117 77 -66 25 -187 34 -247 20z"/>
</g>
</svg>
