<?xml version="1.0" standalone="no"?>
<!DOCTYPE svg PUBLIC "-//W3C//DTD SVG 20010904//EN"
 "http://www.w3.org/TR/2001/REC-SVG-20010904/DTD/svg10.dtd">
<svg version="1.0" xmlns="http://www.w3.org/2000/svg"
 width="512.000000pt" height="512.000000pt" viewBox="0 0 512.000000 512.000000"
 preserveAspectRatio="xMidYMid meet">

<g transform="translate(0.000000,512.000000) scale(0.100000,-0.100000)"
fill="#000000" stroke="none">
<path d="M320 4964 c-269 -73 -402 -391 -263 -634 15 -28 358 -378 887 -907
l861 -863 -861 -863 c-537 -537 -871 -879 -887 -907 -94 -167 -69 -374 62
-513 105 -111 265 -160 410 -126 124 28 94 1 1100 1003 519 518 971 974 1006
1014 153 177 203 385 135 567 -53 140 -61 149 -1093 1182 -859 858 -990 985
-1042 1011 -106 52 -210 64 -315 36z"/>
<path d="M2640 4964 c-271 -73 -402 -387 -263 -634 16 -28 347 -368 887 -907
l861 -863 -861 -863 c-540 -539 -871 -879 -887 -907 -101 -179 -63 -405 90
-540 98 -86 229 -123 356 -102 146 26 102 -14 1140 1021 522 520 976 980 1009
1021 201 248 195 516 -17 762 -35 40 -485 494 -1001 1009 -802 799 -948 940
-999 966 -103 53 -209 65 -315 37z"/>
</g>
</svg>
